<?xml version="1.0" encoding="utf-8" ?><svg xmlns="http://www.w3.org/2000/svg" xmlns:xlink="http://www.w3.org/1999/xlink" width="1024" height="1024" viewBox="0 0 1024 1024"><path fill="#0A1B38" d="M488.123 730.481C484.309 730.24 479.46 729.047 475.741 728.142C418.818 714.282 373.201 669.753 360.766 612.027C351.387 568.482 363.104 524.12 387.907 487.594C395.471 476.455 405.198 465.802 413.18 454.542C426.168 436.265 438.794 417.735 451.053 398.961C469.275 371.236 490.558 340.544 495.315 306.945C496.102 302.543 495.877 297.161 498.587 293.372C505.989 283.024 523.156 284.96 526.992 297.519C528.759 303.304 528.369 309.04 529.735 314.584C536.854 343.484 554.892 370.063 570.755 394.981C582.922 414.316 595.629 433.305 608.859 451.928C613.781 458.781 618.832 465.541 624.01 472.203C632.227 482.701 639.485 491.415 645.994 503.18C674.573 554.772 673.778 618.672 638.952 667.265C616.585 698.475 579.447 723.054 541.354 729.567C533.842 731.231 527.175 732.076 519.435 731.927L512.516 732.421C509.63 732.523 507.49 732.467 504.623 732.345C503.416 732.281 498.624 732.022 497.656 731.705C494.799 731.492 491.025 730.877 488.123 730.481Z"/><path fill="#2343E7" d="M488.123 730.481C484.647 728.702 478.544 728.021 474.661 726.61C451.314 718.133 429.963 699.806 418.992 677.612C414.298 667.89 411.245 657.46 409.955 646.742C405.752 609.99 424.144 586.074 445.15 558.489C453.655 547.335 461.933 536.01 469.978 524.521C476.018 515.717 481.845 506.531 487.634 497.553C498.52 480.671 505.581 461.197 511.956 442.251C518.18 459.407 525.94 481.933 536.16 497.117C546.095 511.875 557.604 528.378 568.06 542.72C593.931 578.203 625.734 612.453 611.71 660.227C603.267 688.989 584.565 709.988 557.953 723.391C553.105 725.827 545.1 727.219 541.354 729.567C533.842 731.231 527.175 732.076 519.435 731.927L512.516 732.421C509.63 732.523 507.49 732.467 504.623 732.345C503.416 732.281 498.624 732.022 497.656 731.705C494.799 731.492 491.025 730.877 488.123 730.481Z"/><path fill="#0A1B38" d="M494.295 728.618C465.91 716.733 438.32 689.906 452.016 656.844C455.535 648.35 462.316 640.984 468.393 634.2C486.724 614.877 501.103 599.344 499.853 570.862C499.554 564.058 498.101 556.501 496.972 549.664C502.92 554.68 508.732 560.57 514.367 566.062C526.003 577.405 539.063 589.974 547.504 604.05C557.747 621.133 570.462 644.063 572.743 663.915C574.739 681.275 569.987 697.302 558.731 710.565C552.997 717.263 545.8 722.553 537.697 726.027C533.08 728.02 520.667 730.546 519.435 731.927L512.516 732.421C509.63 732.523 507.49 732.467 504.623 732.345C503.416 732.281 498.624 732.022 497.656 731.705C497.94 731.593 498.206 731.531 498.42 731.34C498.712 730.51 494.995 729.015 494.295 728.618Z"/><path fill="#3F95FB" d="M506.674 636.787C508.122 638.697 507.217 640.343 507.288 643.159C502.204 658.541 492.965 667.791 487.927 681.871C480.436 702.804 496.561 720.595 512.516 732.421C509.63 732.523 507.49 732.467 504.623 732.345C503.416 732.281 498.624 732.022 497.656 731.705C497.94 731.593 498.206 731.531 498.42 731.34C498.712 730.51 494.995 729.015 494.295 728.618L494.883 727.561C487.421 722.177 480.857 715.255 477.447 706.597C475.54 701.669 474.65 696.405 474.832 691.123C475.538 667.024 496.571 659.936 506.674 636.787Z"/><path fill="#12268F" d="M494.883 727.561C498.654 729.996 501.27 730.538 504.623 732.345C503.416 732.281 498.624 732.022 497.656 731.705C497.94 731.593 498.206 731.531 498.42 731.34C498.712 730.51 494.995 729.015 494.295 728.618L494.883 727.561Z"/><path fill="#3466BB" d="M508.743 630.877L508.75 630.784C508.98 634.926 508.115 639.124 507.288 643.159C507.217 640.343 508.122 638.697 506.674 636.787C507.003 635.044 508.049 632.522 508.743 630.877Z"/></svg>